<svg width="18" height="18" viewBox="0 0 18 18" fill="none" xmlns="http://www.w3.org/2000/svg">
<path fill-rule="evenodd" clip-rule="evenodd" d="M5.92081 5.63932C6.77478 4.78534 7.93302 4.30558 9.14072 4.30558C10.3484 4.30558 11.5067 4.78534 12.3606 5.63932C13.2146 6.49329 13.6944 7.65153 13.6944 8.85923C13.6944 10.0669 13.2146 11.2252 12.3606 12.0791C11.5067 12.9331 10.3484 13.4129 9.14072 13.4129C7.93302 13.4129 6.77478 12.9331 5.92081 12.0791C5.06683 11.2252 4.58708 10.0669 4.58708 8.85923C4.58708 7.65153 5.06683 6.49329 5.92081 5.63932ZM8.00949 11.5902C8.36814 11.7388 8.75253 11.8153 9.14072 11.8153C9.9247 11.8153 10.6766 11.5038 11.2309 10.9495C11.7853 10.3951 12.0967 9.64321 12.0967 8.85923C12.0967 8.07524 11.7853 7.32336 11.2309 6.769C10.6766 6.21464 9.9247 5.9032 9.14072 5.9032C8.75253 5.9032 8.36814 5.97966 8.00949 6.12821C7.65085 6.27677 7.32498 6.49451 7.05049 6.769C6.776 7.04349 6.55826 7.36936 6.4097 7.728C6.26115 8.08665 6.18469 8.47104 6.18469 8.85923C6.18469 9.24742 6.26115 9.63181 6.4097 9.99045C6.55826 10.3491 6.776 10.675 7.05049 10.9495C7.32498 11.2239 7.65085 11.4417 8.00949 11.5902Z" fill="#FCFCFC"/>
<path d="M14.7038 4.98403C14.9057 4.78216 15.0191 4.50838 15.0191 4.2229C15.0191 3.93742 14.9057 3.66364 14.7038 3.46177C14.502 3.25991 14.2282 3.1465 13.9427 3.1465C13.6572 3.1465 13.3834 3.25991 13.1816 3.46177C12.9797 3.66364 12.8663 3.93742 12.8663 4.2229C12.8663 4.50838 12.9797 4.78216 13.1816 4.98403C13.3834 5.18589 13.6572 5.29929 13.9427 5.29929C14.2282 5.29929 14.502 5.18589 14.7038 4.98403Z" fill="#FCFCFC"/>
<path fill-rule="evenodd" clip-rule="evenodd" d="M5.48836 0.0531552C6.43334 0.0100405 6.73455 0 9.14072 0C11.5475 0 11.8481 0.010631 12.7925 0.0531552C13.7357 0.0962702 14.3807 0.246877 14.9441 0.464814C15.535 0.687392 16.0703 1.03607 16.5128 1.48658C16.9634 1.92914 17.3121 2.46467 17.5345 3.05584C17.7537 3.61929 17.9037 4.26365 17.9468 5.20686C17.9899 6.15184 17.9999 6.45306 17.9999 8.85922C17.9999 11.2654 17.9899 11.5666 17.9468 12.5116C17.9037 13.4548 17.7537 14.0992 17.5351 14.6626C17.3125 15.2535 16.9639 15.7888 16.5134 16.2313C16.0704 16.6825 15.5347 17.031 14.9441 17.253C14.3807 17.4722 13.7363 17.6222 12.7931 17.6653C11.8481 17.7084 11.5469 17.7184 9.14072 17.7184C6.73455 17.7184 6.43334 17.7084 5.48836 17.6653C4.54514 17.6222 3.90078 17.4722 3.33734 17.2536C2.74643 17.031 2.21112 16.6824 1.76866 16.2319C1.31743 15.7889 0.96897 15.2532 0.746899 14.6626C0.527781 14.0992 0.377764 13.4548 0.334649 12.5116C0.291535 11.5666 0.281494 11.266 0.281494 8.85922C0.281494 6.45247 0.292125 6.15184 0.334649 5.20745C0.377764 4.26424 0.528371 3.61929 0.746308 3.05584C0.968886 2.46493 1.31756 1.92962 1.76807 1.48717C2.21103 1.03594 2.74672 0.687476 3.33734 0.465405C3.90078 0.246286 4.54514 0.0962702 5.48836 0.0531552ZM12.721 1.64782C11.7867 1.60529 11.5061 1.59643 9.14072 1.59643C6.7753 1.59643 6.49476 1.60529 5.56041 1.64782C4.69693 1.68739 4.22798 1.8315 3.91555 1.95316C3.53071 2.0949 3.18256 2.32114 2.89674 2.61524C2.58725 2.92532 2.39471 3.22062 2.23466 3.63405C2.1124 3.94649 1.96888 4.41544 1.92931 5.27892C1.88679 6.21327 1.87793 6.49381 1.87793 8.85922C1.87793 11.2246 1.88679 11.5052 1.92931 12.4395C1.96888 13.303 2.11299 13.772 2.23466 14.0844C2.37648 14.4692 2.60271 14.8173 2.89674 15.1032C3.1826 15.3973 3.53074 15.6235 3.91555 15.7653C4.22798 15.8875 4.69693 16.0311 5.56041 16.0706C6.49476 16.1132 6.77471 16.122 9.14072 16.122C11.5067 16.122 11.7867 16.1132 12.721 16.0706C13.5845 16.0311 14.0535 15.887 14.3659 15.7653C14.7507 15.6236 15.0989 15.3973 15.3847 15.1032C15.6788 14.8173 15.905 14.4692 16.0468 14.0844C16.169 13.772 16.3126 13.303 16.3521 12.4395C16.3946 11.5052 16.4035 11.2246 16.4035 8.85922C16.4035 6.49381 16.3946 6.21327 16.3521 5.27892C16.3126 4.41544 16.1684 3.94649 16.0468 3.63405C15.8867 3.22062 15.6948 2.92532 15.3847 2.61524C15.0746 2.30576 14.7793 2.11322 14.3659 1.95316C14.0535 1.83091 13.5845 1.68739 12.721 1.64782Z" fill="#FCFCFC"/>
</svg>
