<svg width="18" height="18" viewBox="0 0 18 18" fill="none" xmlns="http://www.w3.org/2000/svg">
<path d="M17.7184 1.30283V16.4156C17.7184 16.7612 17.5812 17.0925 17.3369 17.3369C17.0925 17.5812 16.7612 17.7184 16.4156 17.7184H1.30283C0.957296 17.7184 0.625917 17.5812 0.381589 17.3369C0.137262 17.0925 0 16.7612 0 16.4156L0 1.30283C0 0.957296 0.137262 0.625917 0.381589 0.381589C0.625917 0.137262 0.957296 0 1.30283 0L16.4156 0C16.7612 0 17.0925 0.137262 17.3369 0.381589C17.5812 0.625917 17.7184 0.957296 17.7184 1.30283ZM5.21131 6.7747H2.60565V15.1128H5.21131V6.7747ZM5.44582 3.90848C5.44719 3.71138 5.40973 3.51595 5.33557 3.33333C5.26141 3.15071 5.15201 2.98449 5.01361 2.84415C4.87521 2.70382 4.71052 2.59211 4.52895 2.51543C4.34738 2.43874 4.15248 2.39857 3.95538 2.3972H3.90848C3.50766 2.3972 3.12327 2.55643 2.83985 2.83985C2.55643 3.12327 2.3972 3.50766 2.3972 3.90848C2.3972 4.3093 2.55643 4.6937 2.83985 4.97712C3.12327 5.26054 3.50766 5.41976 3.90848 5.41976C4.10559 5.42461 4.30173 5.39057 4.48568 5.31959C4.66963 5.24862 4.83779 5.14209 4.98056 5.0061C5.12332 4.87011 5.2379 4.70732 5.31773 4.52703C5.39756 4.34674 5.44108 4.1525 5.44582 3.95538V3.90848ZM15.1128 10.0474C15.1128 7.54076 13.5181 6.56625 11.9339 6.56625C11.4152 6.54027 10.8987 6.65076 10.436 6.88667C9.97335 7.12259 9.58061 7.47569 9.29697 7.91077H9.22402V6.7747H6.7747V15.1128H9.38035V10.678C9.34269 10.2238 9.48576 9.77305 9.77849 9.42373C10.0712 9.0744 10.49 8.85469 10.9437 8.81232H11.0428C11.8714 8.81232 12.4863 9.33345 12.4863 10.6467V15.1128H15.0919L15.1128 10.0474Z" fill="#FCFCFC"/>
</svg>
