<?xml version="1.0" encoding="UTF-8"?>
<svg id="Layer_1" data-name="Layer 1" xmlns="http://www.w3.org/2000/svg" viewBox="0 0 335.34 99.5">
  <defs>
    <style>
      .cls-1 {
        fill: #fff;
      }
    </style>
  </defs>
  <g>
    <path class="cls-1" d="M.4,79.98c-.28,0-.4-.13-.4-.44v-14.09c0-.31.11-.44.4-.44h3.9c3.79,0,5,1.41,5,3.19v1.39c0,1.14-.53,2.03-1.85,2.53,1.67.46,2.49,1.41,2.49,2.69v1.87c0,1.81-1.21,3.3-5,3.3H.4ZM2.14,66.79v4.67h2.31c1.83,0,2.71-.71,2.71-1.92v-1.01c0-1.21-.88-1.74-2.86-1.74h-2.16ZM2.14,73.13v5.07h2.8c1.98,0,2.86-.68,2.86-1.89v-1.34c0-1.1-.88-1.83-2.86-1.83h-2.8Z"/>
    <path class="cls-1" d="M28.27,74.06v5.48c0,.31-.09.44-.4.44h-1.34c-.28,0-.4-.13-.4-.44v-14.09c0-.31.11-.44.4-.44h4.47c3.79,0,5,1.58,5,3.39v2.29c0,1.34-.68,2.55-2.58,3.08l2.65,5.77c.11.27-.09.44-.4.44h-1.32c-.31,0-.35-.18-.49-.44l-2.49-5.48h-3.1ZM28.27,66.84v5.39h2.73c1.98,0,2.86-.7,2.86-1.91v-1.56c0-1.19-.88-1.92-2.86-1.92h-2.73Z"/>
    <path class="cls-1" d="M54.55,79.54c0,.31-.09.44-.4.44h-1.34c-.29,0-.39-.13-.39-.44v-14.09c0-.31.11-.44.39-.44h1.34c.31,0,.4.13.4.44v14.09Z"/>
    <path class="cls-1" d="M71.72,79.98c-.27,0-.35-.15-.35-.44v-14.09c0-.31.11-.44.4-.44h4.6c3.76,0,5.02,1.58,5.02,3.39v8.19c0,1.81-1.26,3.39-5.02,3.39h-4.65ZM73.51,66.84v11.32h2.86c1.98,0,2.86-.73,2.86-1.92v-7.49c0-1.19-.88-1.92-2.86-1.92h-2.86Z"/>
    <path class="cls-1" d="M107.04,72.5c.28,0,.42.11.42.4v3.88c0,1.81-1.08,3.39-4.87,3.39s-4.87-1.58-4.87-3.39v-8.55c0-1.81,1.08-3.39,4.87-3.39s4.87,1.58,4.87,3.39v.97c0,.29-.11.42-.4.42h-1.28c-.31,0-.42-.13-.42-.42v-.62c0-1.19-.77-1.91-2.75-1.91s-2.73.73-2.73,1.91v7.84c0,1.19.75,1.92,2.73,1.92s2.75-.7,2.75-1.89v-2.12h-2.62c-.28,0-.42-.11-.42-.42v-1.01c0-.28.13-.4.42-.4h4.3Z"/>
    <path class="cls-1" d="M124.18,79.98c-.29,0-.4-.13-.4-.44v-14.09c0-.31.11-.44.4-.44h7.53c.28,0,.42.11.42.42v.99c0,.31-.13.42-.42.42h-5.79v4.45h5.39c.31,0,.44.11.44.41v.95c0,.29-.13.42-.44.42h-5.39v5.09h6.03c.29,0,.42.09.42.4v1.01c0,.31-.13.42-.42.42h-7.77Z"/>
    <path class="cls-1" d="M194.28,76.95c0,1.76-1.01,3.21-4.65,3.21s-4.64-1.45-4.64-3.21v-8.9c0-1.76,1.01-3.22,4.64-3.22s4.65,1.45,4.65,3.22v1.12c0,.24-.09.35-.31.35h-.88c-.24,0-.33-.11-.33-.35v-.88c0-1.27-.77-2.11-3.1-2.11s-3.11.84-3.11,2.11v8.41c0,1.28.77,2.12,3.11,2.12s3.1-.84,3.1-2.12v-1.17c0-.22.09-.33.33-.33h.88c.22,0,.31.11.31.33v1.41Z"/>
    <path class="cls-1" d="M215.28,65.34l4.4,14.31c.07.22-.02.33-.26.33h-.95c-.22,0-.33-.11-.4-.33l-1.21-3.92h-5.04l-1.19,3.92c-.06.22-.16.33-.38.33h-.88c-.22,0-.31-.11-.24-.33l4.38-14.31c.07-.22.18-.33.42-.33h.95c.22,0,.33.11.4.33ZM214.92,69.33c-.22-.71-.51-2.42-.55-2.67-.02.15-.29,1.78-.55,2.62l-1.63,5.2h4.34l-1.61-5.15Z"/>
    <path class="cls-1" d="M236.94,74.22v5.44c0,.22-.07.33-.31.33h-.93c-.22,0-.31-.11-.31-.33v-14.31c0-.22.09-.33.29-.33h4.36c3.66,0,4.78,1.45,4.78,3.21v2.76c0,1.76-1.12,3.24-4.78,3.24h-3.11ZM236.94,66.35v6.52h3.11c2.35,0,3.21-.86,3.21-2.14v-2.27c0-1.27-.86-2.11-3.21-2.11h-3.11Z"/>
    <path class="cls-1" d="M262.6,79.65c0,.22-.07.33-.31.33h-.93c-.22,0-.31-.11-.31-.33v-14.31c0-.22.09-.33.31-.33h.93c.24,0,.31.11.31.33v14.31Z"/>
    <path class="cls-1" d="M287.7,65.01c.22,0,.33.09.33.33v.68c0,.24-.11.33-.33.33h-3.79v13.3c0,.22-.09.33-.31.33h-.94c-.24,0-.33-.11-.33-.33v-13.3h-3.79c-.24,0-.33-.09-.33-.33v-.68c0-.24.09-.33.33-.33h9.16Z"/>
    <path class="cls-1" d="M307.19,65.34l4.4,14.31c.07.22-.02.33-.27.33h-.95c-.22,0-.33-.11-.39-.33l-1.21-3.92h-5.04l-1.19,3.92c-.07.22-.15.33-.37.33h-.88c-.22,0-.31-.11-.24-.33l4.38-14.31c.06-.22.17-.33.42-.33h.94c.23,0,.33.11.4.33ZM306.83,69.33c-.22-.71-.51-2.42-.55-2.67-.02.15-.29,1.78-.55,2.62l-1.63,5.2h4.34l-1.61-5.15Z"/>
    <path class="cls-1" d="M328.87,78.64h6.17c.22,0,.31.08.31.3v.71c0,.24-.09.33-.31.33h-7.47c-.18,0-.27-.11-.27-.33v-14.31c0-.22.09-.33.31-.33h.95c.22,0,.31.11.31.33v13.3Z"/>
  </g>
  <g>
    <path class="cls-1" d="M22.33,91.35l3.55,7.8h-1.08l-.87-1.92h-3.19l-.86,1.92h-1.07l3.51-7.8ZM22.33,93.69l-1.2,2.68h2.42l-1.21-2.68Z"/>
    <path class="cls-1" d="M38.65,92.48l-.83.67c-.22-.23-.42-.4-.6-.51-.18-.11-.44-.17-.77-.17-.37,0-.67.08-.9.25-.23.16-.34.38-.34.64,0,.23.1.43.3.6.2.17.54.37,1.02.57.48.21.86.4,1.13.58.27.18.49.38.66.59.17.22.3.45.39.68.08.24.13.49.13.76,0,.62-.23,1.16-.68,1.6-.46.44-1.01.66-1.65.66s-1.19-.17-1.67-.52c-.48-.34-.85-.86-1.11-1.55l1.02-.29c.37.84.95,1.27,1.72,1.27.38,0,.68-.11.93-.34s.37-.5.37-.85c0-.2-.06-.41-.19-.62-.13-.2-.29-.37-.49-.51-.19-.13-.5-.29-.92-.46-.42-.17-.74-.33-.97-.47-.23-.14-.43-.31-.59-.51-.16-.2-.28-.4-.36-.59-.08-.2-.12-.41-.12-.63,0-.54.22-1,.65-1.38.43-.38.96-.57,1.57-.57.41,0,.82.09,1.24.27.42.18.77.44,1.05.81Z"/>
    <path class="cls-1" d="M47.27,91.64h4.17v1.03h-3.15v1.88h3.15v1.01h-3.15v2.58h3.15v1.02h-4.17v-7.51Z"/>
    <path class="cls-1" d="M64.47,92.48l-.83.67c-.22-.23-.42-.4-.6-.51-.18-.11-.44-.17-.77-.17-.37,0-.67.08-.9.25-.23.16-.34.38-.34.64,0,.23.1.43.3.6.2.17.54.37,1.02.57.48.21.86.4,1.13.58.27.18.49.38.66.59.17.22.3.45.39.68.09.24.13.49.13.76,0,.62-.22,1.16-.68,1.6-.46.44-1,.66-1.65.66s-1.18-.17-1.67-.52c-.48-.34-.85-.86-1.11-1.55l1.03-.29c.37.84.94,1.27,1.72,1.27.37,0,.68-.11.93-.34.25-.22.37-.5.37-.85,0-.2-.07-.41-.2-.62-.13-.2-.29-.37-.49-.51-.19-.13-.5-.29-.92-.46-.42-.17-.75-.33-.97-.47-.23-.14-.42-.31-.59-.51-.16-.2-.29-.4-.37-.59-.08-.2-.11-.41-.11-.63,0-.54.22-1,.65-1.38.43-.38.96-.57,1.57-.57.41,0,.82.09,1.25.27.42.18.77.44,1.05.81Z"/>
    <path class="cls-1" d="M72.86,95.35c0-1.09.41-2.01,1.23-2.79.82-.77,1.8-1.16,2.95-1.16s2.09.39,2.9,1.17c.81.78,1.22,1.71,1.22,2.78,0,1.13-.4,2.1-1.2,2.88-.8.78-1.78,1.17-2.94,1.17s-2.12-.39-2.93-1.18c-.81-.79-1.21-1.75-1.21-2.87ZM80.05,95.4c0-.83-.3-1.53-.89-2.1-.6-.57-1.33-.85-2.21-.85-.83,0-1.54.29-2.13.87-.59.58-.88,1.27-.88,2.08s.3,1.51.91,2.08c.61.57,1.35.85,2.23.85.81,0,1.51-.29,2.1-.87.59-.58.88-1.27.88-2.06Z"/>
    <path class="cls-1" d="M89.89,91.64h1.63c.81,0,1.47.2,1.98.6.51.4.76.92.76,1.55,0,.5-.16.95-.49,1.33-.33.39-.84.66-1.54.81l2.18,3.22h-1.18l-2.08-3.09h-.23v3.09h-1.02v-7.51ZM90.91,92.55v2.62c1.51.03,2.27-.41,2.27-1.31,0-.32-.09-.58-.26-.78-.18-.2-.41-.34-.71-.41-.29-.07-.73-.11-1.3-.11Z"/>
    <path class="cls-1" d="M102.93,91.64h4.16v1.03h-3.15v1.88h3.15v1.01h-3.15v2.58h3.15v1.02h-4.16v-7.51Z"/>
    <path class="cls-1" d="M120.14,92.48l-.83.67c-.22-.23-.42-.4-.6-.51-.18-.11-.44-.17-.77-.17-.37,0-.67.08-.9.25-.23.16-.34.38-.34.64,0,.23.1.43.3.6.2.17.54.37,1.03.57.48.21.86.4,1.13.58.27.18.49.38.66.59.17.22.3.45.39.68.08.24.13.49.13.76,0,.62-.22,1.16-.68,1.6-.45.44-1,.66-1.65.66s-1.19-.17-1.67-.52c-.48-.34-.85-.86-1.11-1.55l1.02-.29c.38.84.95,1.27,1.72,1.27.37,0,.68-.11.93-.34.25-.22.37-.5.37-.85,0-.2-.07-.41-.2-.62-.13-.2-.29-.37-.48-.51-.2-.13-.5-.29-.92-.46-.42-.17-.74-.33-.97-.47-.23-.14-.42-.31-.59-.51-.16-.2-.28-.4-.36-.59-.08-.2-.11-.41-.11-.63,0-.54.21-1,.65-1.38.43-.38.96-.57,1.57-.57.41,0,.82.09,1.25.27.42.18.77.44,1.05.81Z"/>
    <path class="cls-1" d="M139.33,91.64h4.17v1.03h-3.15v1.88h3.15v1.01h-3.15v2.58h3.15v1.02h-4.17v-7.51Z"/>
    <path class="cls-1" d="M151.89,91.34l5.56,5.71v-5.41h1.03v7.86l-5.56-5.68v5.34h-1.02v-7.81Z"/>
    <path class="cls-1" d="M177.81,91.64h1.01v7.51h-1.01v-7.51Z"/>
    <path class="cls-1" d="M187.66,91.34l5.56,5.71v-5.41h1.02v7.86l-5.55-5.68v5.34h-1.03v-7.81Z"/>
    <path class="cls-1" d="M202.4,91.65h1.08l2.36,5.32,2.38-5.32h1.09l-3.48,7.75-3.43-7.75Z"/>
    <path class="cls-1" d="M217.48,91.64h4.16v1.03h-3.15v1.88h3.15v1.01h-3.15v2.58h3.15v1.02h-4.16v-7.51Z"/>
    <path class="cls-1" d="M230.26,91.64h1.62c.81,0,1.47.2,1.98.6.51.4.77.92.77,1.55,0,.5-.17.95-.5,1.33-.33.39-.84.66-1.54.81l2.18,3.22h-1.18l-2.09-3.09h-.23v3.09h-1.02v-7.51ZM231.29,92.55v2.62c1.51.03,2.27-.41,2.27-1.31,0-.32-.09-.58-.27-.78-.18-.2-.42-.34-.71-.41-.29-.07-.73-.11-1.3-.11Z"/>
    <path class="cls-1" d="M247.97,92.48l-.83.67c-.22-.23-.42-.4-.6-.51-.18-.11-.44-.17-.77-.17-.37,0-.67.08-.89.25-.23.16-.35.38-.35.64,0,.23.1.43.3.6.2.17.54.37,1.02.57.48.21.86.4,1.13.58.27.18.49.38.66.59.17.22.3.45.39.68.09.24.13.49.13.76,0,.62-.23,1.16-.68,1.6-.45.44-1,.66-1.65.66s-1.19-.17-1.67-.52c-.48-.34-.85-.86-1.11-1.55l1.02-.29c.38.84.95,1.27,1.72,1.27.38,0,.68-.11.93-.34.25-.22.37-.5.37-.85,0-.2-.06-.41-.2-.62-.13-.2-.29-.37-.48-.51-.2-.13-.5-.29-.92-.46-.42-.17-.75-.33-.98-.47-.22-.14-.42-.31-.59-.51-.16-.2-.28-.4-.36-.59-.08-.2-.12-.41-.12-.63,0-.54.22-1,.65-1.38.43-.38.96-.57,1.57-.57.41,0,.83.09,1.24.27.42.18.77.44,1.05.81Z"/>
    <path class="cls-1" d="M256.65,91.64h1.01v7.51h-1.01v-7.51Z"/>
    <path class="cls-1" d="M266.25,95.35c0-1.09.41-2.01,1.23-2.79.82-.77,1.8-1.16,2.95-1.16s2.09.39,2.89,1.17c.81.78,1.22,1.71,1.22,2.78,0,1.13-.4,2.1-1.2,2.88-.8.78-1.78,1.17-2.94,1.17s-2.13-.39-2.93-1.18c-.81-.79-1.21-1.75-1.21-2.87ZM273.45,95.4c0-.83-.3-1.53-.9-2.1-.6-.57-1.33-.85-2.21-.85-.83,0-1.54.29-2.13.87-.59.58-.89,1.27-.89,2.08s.3,1.51.91,2.08c.6.57,1.35.85,2.23.85.81,0,1.51-.29,2.09-.87.59-.58.89-1.27.89-2.06Z"/>
    <path class="cls-1" d="M283.06,91.34l5.56,5.71v-5.41h1.03v7.86l-5.56-5.68v5.34h-1.03v-7.81Z"/>
    <path class="cls-1" d="M298.34,91.64h4.17v1.03h-3.15v1.88h3.15v1.01h-3.15v2.58h3.15v1.02h-4.17v-7.51Z"/>
    <path class="cls-1" d="M315.55,92.48l-.83.67c-.22-.23-.42-.4-.6-.51-.18-.11-.44-.17-.77-.17-.37,0-.67.08-.9.25-.23.16-.34.38-.34.64,0,.23.1.43.3.6.2.17.54.37,1.03.57.48.21.86.4,1.12.58.27.18.49.38.66.59.17.22.3.45.39.68.09.24.13.49.13.76,0,.62-.23,1.16-.68,1.6-.45.44-1,.66-1.65.66s-1.18-.17-1.67-.52c-.48-.34-.85-.86-1.11-1.55l1.02-.29c.38.84.95,1.27,1.72,1.27.38,0,.69-.11.93-.34.25-.22.37-.5.37-.85,0-.2-.06-.41-.19-.62-.13-.2-.29-.37-.48-.51-.2-.13-.5-.29-.92-.46-.42-.17-.74-.33-.97-.47-.23-.14-.42-.31-.59-.51-.17-.2-.29-.4-.37-.59-.08-.2-.12-.41-.12-.63,0-.54.22-1,.65-1.38.43-.38.96-.57,1.57-.57.41,0,.82.09,1.24.27.42.18.77.44,1.05.81Z"/>
  </g>
  <rect class="cls-1" x="142.92" y="11.51" width="3.02" height="48.16"/>
  <rect class="cls-1" x="153.28" y="15.5" width="3.02" height="55.02"/>
  <rect class="cls-1" x="164.05" y="6.66" width="3.02" height="57.39"/>
  <rect class="cls-1" x="175.3" width="3.02" height="55.05"/>
</svg>