<?xml version="1.0" encoding="UTF-8"?>
<svg id="Layer_1" data-name="Layer 1" xmlns="http://www.w3.org/2000/svg" viewBox="0 0 851.33 642.04">
  <defs>
    <style>
      .cls-1 {
        fill: #e9a721;
      }

      .cls-2 {
        fill: #153961;
      }
    </style>
  </defs>
  <path class="cls-1" d="M398.34,590.37c25.34-20.04,67.41-4.02,64.34,24.54-3,28.1-50.45,37.32-69.53,13.5-9.62-12.02-7.44-28.02,5.19-38.03h0Z"/>
  <path class="cls-1" d="M79.1,478.69c4.44-3.68,10.83-6.76,10.67-5.17-.23,2.34-12,9.83-13.13,8.39-.52-.72,2.36-3.12,2.46-3.22h0Z"/>
  <path class="cls-1" d="M115.93,471.77c-6.5,5.22-15.98,8.81-15.87,5.95.15-4,17.46-13.88,19.48-11.11.31.42.57,1.75-3.62,5.16h0Z"/>
  <path class="cls-1" d="M150.79,471.74c-9.4,7.4-23.07,10.64-21.86,5.19,1.62-7.19,23.49-17.64,26.62-12.7.75,1.22-.1,3.83-4.76,7.51h0Z"/>
  <path class="cls-1" d="M192.75,478.76c-11.8,9.23-30.03,11.33-28.73,3.3,1.67-9.99,28.13-21.2,34.12-14.44.38.43,3.35,4.27-5.4,11.14h0Z"/>
  <path class="cls-1" d="M242.89,495.56c-14.66,11.35-37.89,11.16-36.54-.29,1.67-14.29,34.89-25.85,42.85-14.93,2.23,3.05,1.91,8.85-6.3,15.22h0Z"/>
  <path class="cls-1" d="M302.26,525.16c-17.67,13.79-46.46,10.1-45.29-5.81,1.35-18.04,39.28-29.75,51.37-15.84,4.36,5.01,4.17,13.64-6.08,21.65h0Z"/>
  <path class="cls-1" d="M371.84,570.52c-22.26,17.37-58.5,7.06-54.6-15.51,3.97-23.09,46.8-32.11,61.1-12.84,6.46,8.66,3.79,20.33-6.51,28.35h0Z"/>
  <path class="cls-1" d="M168.53,427.72c4.62-2.92,12.14-5.27,12.04-3.76-.2,2.23-13.73,8.15-14.65,6.38-.26-.55,1.21-1.77,2.6-2.62h0Z"/>
  <path class="cls-1" d="M215.19,425.1c-7.48,4.55-18.67,6.72-17.87,3.42,1.03-4.28,20.05-11.03,21.66-7.68.22.46.26,1.76-3.79,4.25h0Z"/>
  <path class="cls-1" d="M259.73,430.45c-10.85,6.5-25.39,6.87-24.56,1.96,1.07-6.58,25.4-13.85,29.2-8.72.47.65,1.55,3.03-4.64,6.76h0Z"/>
  <path class="cls-1" d="M312.42,445.16c-13.35,8.06-34.52,6.75-31.9-1.98,3.12-10.21,32.24-16.18,37.56-7.69,1.36,2.2.62,5.9-5.66,9.66h0Z"/>
  <path class="cls-1" d="M374.28,472.18c-16.05,9.71-43.09,4.8-40.15-7.26,3.43-14.23,39.68-18.91,46.7-6.03,1.84,3.39,1.11,8.68-6.55,13.29h0Z"/>
  <path class="cls-1" d="M445.86,514.44c-18.96,11.88-51.96,2.13-48.99-14.49,3.24-18.27,44.03-21.85,55.24-4.87,4.4,6.64,1.94,14.24-6.25,19.37h0Z"/>
  <path class="cls-1" d="M265.02,392.26c4.45-2.03,14.11-3.79,13.1-1.71-1.11,2.29-14.43,5.57-15.64,3.86-.27-.38.26-1.12,2.54-2.15h0Z"/>
  <path class="cls-1" d="M322.02,396.47c-8.73,3.77-20.93,3.52-19.48.41,2.01-4.35,22.42-7.61,23.23-3.69.12.56-.2,1.75-3.75,3.29h0Z"/>
  <path class="cls-1" d="M376.64,409.79c-10.56,4.64-28.47,2.98-26.64-2.47,2.24-6.63,28.29-9.16,31.32-3.04.64,1.29.34,3.29-4.68,5.51h0Z"/>
  <path class="cls-1" d="M440.11,435.09c-14.23,6.24-38.15.63-34.12-8.03,4.34-9.38,35.49-9.33,39.7.04.59,1.4,1.29,4.98-5.57,7.99h0Z"/>
  <path class="cls-1" d="M367.2,373.52c5-1.45,14.84-1.5,14.1.26-.39.91-4.84,1.91-7.68,2.13-7.66.61-8.77-.49-8.93-.84,0-.04-.06-.11-.06-.17.26-.41.52-.81,2.56-1.38h0Z"/>
  <path class="cls-1" d="M772.25,478.69c-4.46-3.68-10.85-6.76-10.68-5.17.22,2.34,12,9.83,13.09,8.39.58-.72-2.32-3.12-2.42-3.22h0Z"/>
  <path class="cls-1" d="M735.43,471.77c6.48,5.22,15.95,8.81,15.85,5.95-.15-4-17.45-13.88-19.5-11.11-.32.42-.58,1.75,3.65,5.16h0Z"/>
  <path class="cls-1" d="M700.55,471.74c9.4,7.4,23.07,10.64,21.84,5.19-1.63-7.19-23.51-17.64-26.59-12.7-.8,1.22.06,3.83,4.74,7.51h0Z"/>
  <path class="cls-1" d="M658.57,478.76c11.82,9.23,30.07,11.33,28.7,3.3-1.63-9.99-28.09-21.2-34.1-14.44-.36.43-3.35,4.27,5.4,11.14h0Z"/>
  <path class="cls-1" d="M608.46,495.56c14.66,11.35,37.87,11.16,36.52-.29-1.67-14.29-34.9-25.85-42.81-14.93-2.25,3.05-1.91,8.85,6.29,15.22h0Z"/>
  <path class="cls-1" d="M549.08,525.16c17.7,13.79,46.44,10.1,45.27-5.81-1.35-18.04-39.26-29.75-51.36-15.84-4.36,5.01-4.17,13.64,6.09,21.65h0Z"/>
  <path class="cls-1" d="M479.5,570.52c22.24,17.37,58.47,7.06,54.6-15.51-3.95-23.09-46.83-32.11-61.13-12.84-6.45,8.66-3.77,20.33,6.52,28.35h0Z"/>
  <path class="cls-1" d="M682.82,427.72c-4.62-2.92-12.14-5.27-12.05-3.76.2,2.23,13.71,8.15,14.62,6.38.28-.55-1.21-1.77-2.57-2.62h0Z"/>
  <path class="cls-1" d="M636.15,425.1c7.48,4.55,18.67,6.72,17.88,3.42-1.04-4.28-20.08-11.03-21.68-7.68-.18.46-.28,1.76,3.81,4.25h0Z"/>
  <path class="cls-1" d="M591.61,430.45c10.85,6.5,25.38,6.87,24.58,1.96-1.09-6.58-25.39-13.85-29.22-8.72-.47.65-1.57,3.03,4.64,6.76h0Z"/>
  <path class="cls-1" d="M538.88,445.16c13.39,8.06,34.58,6.75,31.9-1.98-3.1-10.21-32.22-16.18-37.52-7.69-1.4,2.2-.63,5.9,5.61,9.66h0Z"/>
  <path class="cls-1" d="M477.04,472.18c16.07,9.71,43.11,4.8,40.18-7.26-3.45-14.23-39.68-18.91-46.72-6.03-1.84,3.39-1.11,8.68,6.55,13.29h0Z"/>
  <path class="cls-1" d="M586.32,392.26c-4.47-2.03-14.13-3.79-13.12-1.71,1.15,2.29,14.44,5.57,15.67,3.86.24-.38-.28-1.12-2.56-2.15h0Z"/>
  <path class="cls-1" d="M529.32,396.47c8.71,3.77,20.89,3.52,19.46.41-1.98-4.35-22.42-7.61-23.23-3.69-.12.56.21,1.75,3.77,3.29h0Z"/>
  <path class="cls-1" d="M474.69,409.79c10.59,4.64,28.49,2.98,26.66-2.47-2.24-6.63-28.29-9.16-31.33-3.04-.65,1.29-.35,3.29,4.67,5.51h0Z"/>
  <path class="cls-1" d="M484.13,373.52c-5-1.45-14.84-1.5-14.06.26.38.91,4.82,1.91,7.64,2.13,7.65.61,8.77-.49,8.93-.84.04-.04.06-.11.08-.17-.28-.41-.5-.81-2.58-1.38h0Z"/>
  <path class="cls-1" d="M434.67,387.53c-8.08,2.3-22.1.49-20.85-2.7,1.63-4.08,23.31-4.06,24.42.02.44,1.54-2.58,2.4-3.57,2.68h0Z"/>
  <path class="cls-2" d="M107.82,153.41h7.58l21.64,49.76h-10l-4.58-11.37h-21.78l-4.44,11.37h-9.78l21.37-49.76h0ZM118.96,183.94l-7.58-20-7.72,20h15.3Z"/>
  <path class="cls-2" d="M160.04,178.59c-1.59-2.22-4.15-3.4-6.99-3.4-2.23,0-4.86,1.05-4.86,3.55,0,5.98,18.45,1.11,18.45,14.45,0,8.04-7.58,10.82-14.86,10.82-5.12,0-9.56-1.32-12.98-5.15l5.55-5.32c2.17,2.46,4.39,4.21,7.92,4.21,2.44,0,6.03-1.17,6.03-3.94,0-7.23-18.45-1.46-18.45-14.51,0-7.44,6.67-10.77,13.39-10.77,4.92,0,9.64,1.38,12.33,5.07l-5.55,5h0Z"/>
  <path class="cls-2" d="M189.58,168.53c10.53,0,18.59,7.02,18.59,17.5s-8.06,17.98-18.59,17.98-18.14-7.02-18.14-17.98,8.06-17.5,18.14-17.5h0ZM189.58,196.5c6.58,0,10.26-4.91,10.26-10.47,0-5.21-3.67-10-10.26-10-6.13,0-9.8,4.79-9.8,10,0,5.56,3.67,10.47,9.8,10.47h0Z"/>
  <path class="cls-2" d="M239.22,179.36c-1.95-2.01-4.11-3.33-6.33-3.33-6.57,0-10.26,4.79-10.26,10,0,5.56,3.69,10.47,10.26,10.47,2.57,0,4.94-1.12,6.47-3.26l5.56,6.09c-3.4,3.4-9.09,4.67-12.02,4.67-10.54,0-18.59-7.02-18.59-17.98s8.05-17.5,18.59-17.5c4.24,0,8.91,1.52,12.1,5.07l-5.78,5.76h0Z"/>
  <path class="cls-2" d="M254.15,152.92c3.07,0,5.44,2.14,5.44,5s-2.36,5.12-5.44,5.12-5.28-2.37-5.28-5.12,2.22-5,5.28-5h0ZM250.07,169.36h8.33v33.8h-8.33v-33.8h0Z"/>
  <path class="cls-2" d="M289.31,198.58h-.24c-2.36,3.76-6.23,5.43-10.68,5.43-6.19,0-12.46-3.41-12.46-10.14,0-11.18,12.94-11.94,21.29-11.94h2.08v-.91c0-4.09-3.22-6.24-7.66-6.24-3.47,0-6.66,1.39-8.88,3.47l-4.39-4.36c3.69-3.76,8.91-5.35,14.19-5.35,14.22,0,14.22,10.29,14.22,14.99v19.64h-7.47v-4.59h0ZM288.81,188.11h-1.75c-4.58,0-12.5.35-12.5,5.14,0,3.19,3.11,4.5,5.83,4.5,5.69,0,8.41-3.11,8.41-7.76v-1.88h0Z"/>
  <path class="cls-2" d="M329.03,179.36c-1.94-2.01-4.11-3.33-6.33-3.33-6.11,0-9.78,4.79-9.78,10,0,5.56,3.68,10.47,9.78,10.47,2.56,0,4.92-1.12,6.47-3.26l5.54,6.09c-3.4,3.4-9.09,4.67-12,4.67-10.08,0-18.12-7.02-18.12-17.98s8.04-17.5,18.12-17.5c4.25,0,8.88,1.52,12.08,5.07l-5.75,5.76h0Z"/>
  <path class="cls-2" d="M344.44,152.92c3.05,0,5.42,2.14,5.42,5s-2.36,5.12-5.42,5.12-5.62-2.37-5.62-5.12,2.56-5,5.62-5h0ZM340.2,169.36h8.47v33.8h-8.47v-33.8h0Z"/>
  <path class="cls-2" d="M374.8,168.53c10.47,0,18.53,7.02,18.53,17.5s-8.06,17.98-18.53,17.98-18.2-7.02-18.2-17.98,8.04-17.5,18.2-17.5h0ZM374.8,196.5c6.5,0,10.2-4.91,10.2-10.47,0-5.21-3.69-10-10.2-10s-9.87,4.79-9.87,10c0,5.56,3.68,10.47,9.87,10.47h0ZM378.8,153.41h9.44l-9.8,10.11h-6.99l7.34-10.11h0Z"/>
  <path class="cls-2" d="M401.12,169.36h7.9v5.34h.16c1.53-3.33,5.04-6.17,10.67-6.17,8.97,0,12.17,6.32,12.17,13.12v21.51h-8.35v-17.35c0-3.68-.26-9.78-6.09-9.78s-8.11,4.02-8.11,8.48v18.65h-8.34v-33.8h0Z"/>
  <polygon class="cls-2" points="463.46 153.41 476.81 153.41 490.4 188.32 503.67 153.41 516.86 153.41 516.86 203.17 508.51 203.17 508.51 161.87 508.39 161.87 493.45 203.17 487.22 203.17 471.95 161.87 471.8 161.87 471.8 203.17 463.46 203.17 463.46 153.41 463.46 153.41"/>
  <path class="cls-2" d="M534.44,189.29c.55,4.93,4.31,8.04,8.97,8.04,4.16,0,6.86-1.95,8.95-4.64l6.15,4.64c-4.05,4.79-8.98,6.68-14.26,6.68-10.06,0-18.13-7.02-18.13-17.98s8.07-17.5,18.13-17.5c9.3,0,15.93,6.53,15.93,18.45v2.31h-25.73ZM551.52,182.69c-.06-4.86-3.25-7.91-8.47-7.91-4.92,0-7.98,3.12-8.62,7.91h17.08Z"/>
  <polygon class="cls-2" points="576.73 184.77 565.19 169.36 575.35 169.36 582.01 179.36 589.24 169.36 599.23 169.36 587.37 184.77 601.23 203.17 590.62 203.17 581.95 191.1 573.2 203.17 563.35 203.17 576.73 184.77 576.73 184.77"/>
  <path class="cls-2" d="M610.14,152.92c3.03,0,5.42,2.14,5.42,5s-2.38,5.12-5.42,5.12-5.28-2.37-5.28-5.12,2.22-5,5.28-5h0ZM606.03,169.36h8.36v33.8h-8.36v-33.8h0Z"/>
  <path class="cls-2" d="M647.22,179.36c-1.94-2.01-4.11-3.33-6.33-3.33-6.19,0-10.14,4.79-10.14,10,0,5.56,3.94,10.47,10.14,10.47,2.58,0,4.92-1.12,6.47-3.26l5.56,6.09c-3.41,3.4-9.09,4.67-12.03,4.67-10.45,0-18.59-7.02-18.59-17.98s8.13-17.5,18.59-17.5c4.25,0,8.89,1.52,12.1,5.07l-5.77,5.76h0Z"/>
  <path class="cls-2" d="M679.23,198.58h-.2c-2.36,3.76-6.27,5.43-11.01,5.43-6.35,0-12.3-3.41-12.3-10.14,0-11.18,12.81-11.94,21.42-11.94h2.09v-.91c0-4.09-3.2-6.24-7.72-6.24-3.71,0-7.04,1.39-9.26,3.47l-4.37-4.36c3.65-3.76,8.95-5.35,14.58-5.35,14.27,0,14.27,10.29,14.27,14.99v19.64h-7.5v-4.59h0ZM678.75,188.11h-1.73c-4.64,0-12.99.35-12.99,5.14,0,3.19,3.26,4.5,6.15,4.5,5.86,0,8.57-3.11,8.57-7.76v-1.88h0Z"/>
  <path class="cls-2" d="M695.71,169.36h8.03v5.34h.14c1.63-3.33,4.94-6.17,10.56-6.17,8.97,0,12.16,6.32,12.16,13.12v21.51h-8.33v-17.35c0-3.68-.28-9.78-6.11-9.78s-7.97,4.02-7.97,8.48v18.65h-8.47v-33.8h0Z"/>
  <path class="cls-2" d="M757.37,198.58h-.22c-2.36,3.76-6.25,5.43-10.71,5.43-6.55,0-12.6-3.41-12.6-10.14,0-11.18,13.11-11.94,21.44-11.94h2.08v-.91c0-4.09-3.19-6.24-7.64-6.24-3.51,0-6.9,1.39-9.23,3.47l-4.52-4.36c3.77-3.76,9.28-5.35,14.64-5.35,14.24,0,14.24,10.29,14.24,14.99v19.64h-7.5v-4.59h0ZM756.87,188.11h-1.74c-4.56,0-12.71.35-12.71,5.14,0,3.19,3.29,4.5,6.07,4.5,5.7,0,8.39-3.11,8.39-7.76v-1.88h0Z"/>
  <path class="cls-2" d="M28.05,265.74h-.14c-2.44,4.14-6.81,5.96-11.47,5.96C6.16,271.7,0,263.94,0,253.74s6.58-17.51,16.11-17.51c6.24,0,9.58,2.92,11.31,5.07h.22v-23.87h8.79v53.42h-8.37v-5.1h0ZM18.11,264.07c6.11,0,9.81-4.87,9.81-10.33s-3.69-10.01-9.81-10.01-9.78,4.79-9.78,10.01,3.67,10.33,9.78,10.33h0Z"/>
  <path class="cls-2" d="M52.57,256.65c.56,5.27,4.31,8.27,8.95,8.27,4.17,0,7.36-1.95,9.44-4.52l5.95,4.52c-3.89,4.91-8.81,6.79-14.54,6.79-10.08,0-18.13-7.14-18.13-17.96s8.05-17.51,18.13-17.51,16.07,6.52,16.07,18.13v2.29h-25.87ZM70.12,250.4c-.07-4.86-3.75-7.91-8.94-7.91s-7.99,3.13-8.61,7.91h17.55Z"/>
  <polygon class="cls-2" points="107.84 220.75 116.59 220.75 116.59 270.85 107.84 270.85 107.84 220.75 107.84 220.75"/>
  <path class="cls-2" d="M126.61,237.08h7.89v5.33h.14c1.53-3.33,4.7-6.18,10.68-6.18,8.98,0,12.16,6.31,12.16,13.12v21.5h-8.33v-17.32c0-3.69-.28-9.8-6.11-9.8s-8.11,4.02-8.11,8.48v18.64h-8.31v-33.77h0Z"/>
  <path class="cls-2" d="M185.19,246.29c-1.59-2.22-3.67-3.4-6.53-3.4-2.6,0-5.34,1.04-5.34,3.54,0,5.97,18.47,1.11,18.47,14.44,0,8.05-7.58,10.82-14.52,10.82-5.45,0-9.9-1.32-13.31-5.26l5.56-5.22c2.16,2.36,4.36,4.09,8.37,4.09,2.44,0,5.55-1.17,5.55-3.81,0-7.22-18.43-1.46-18.43-14.52,0-7.42,6.67-10.76,13.85-10.76,4.46,0,9.18,1.38,11.88,5.07l-5.56,5h0Z"/>
  <path class="cls-2" d="M194.38,244.15v-7.07h6.86v-9.79h8.33v9.79h9.64v7.07h-9.64v14.64c0,3.62.97,5.7,5.09,5.7,1.51,0,3.52-.27,4.55-1.02v7.12c-1.73.85-4.7,1.12-7.03,1.12-8.87,0-10.95-3.97-10.95-11.93v-15.62h-6.86Z"/>
  <path class="cls-2" d="M230.01,220.27c3.04,0,5.42,2.47,5.42,5.34s-2.38,5-5.42,5-5.29-2.36-5.29-5,2.22-5.34,5.29-5.34h0ZM225.91,237.08h8.31v33.77h-8.31v-33.77h0Z"/>
  <path class="cls-2" d="M239.93,244.15v-7.07h6.89v-9.79h8.81v9.79h9.16v7.07h-9.16v14.64c0,3.62.97,5.7,4.64,5.7,1.47,0,3.47-.27,4.52-1.02v7.12c-1.74.85-4.66,1.12-6.6,1.12-9.21,0-11.37-3.97-11.37-11.93v-15.62h-6.89Z"/>
  <path class="cls-2" d="M302.2,270.85h-7.91v-5.45h-.14c-1.51,3.44-4.64,6.3-10.68,6.3-8.94,0-12.14-6.44-12.14-13.6v-21.03h8.34v16.85c0,3.69.28,10.14,6.23,10.14s8-4.03,8-8.81v-18.18h8.31v33.77h0Z"/>
  <path class="cls-2" d="M334.92,247.06c-1.95-2-4.1-3.33-6.3-3.33-6.49,0-10.28,4.79-10.28,10.01s3.79,10.33,10.28,10.33c2.56,0,4.92-1.11,6.45-3.11l5.57,5.96c-3.42,3.53-9.11,4.78-12.02,4.78-10.54,0-18.61-7.14-18.61-17.96s8.07-17.51,18.61-17.51c4.24,0,8.86,1.53,12.08,5.07l-5.77,5.76h0Z"/>
  <path class="cls-2" d="M349.86,220.27c3.07,0,5.42,2.47,5.42,5.34s-2.34,5-5.42,5-5.26-2.36-5.26-5,2.2-5.34,5.26-5.34h0ZM345.77,237.08h8.34v33.77h-8.34v-33.77h0Z"/>
  <path class="cls-2" d="M380.63,236.23c10.06,0,18.59,7.02,18.59,17.51s-8.53,17.96-18.59,17.96-18.13-7.14-18.13-17.96,8.05-17.51,18.13-17.51h0ZM380.63,264.07c6.11,0,9.78-4.87,9.78-10.33s-3.67-10.01-9.78-10.01-9.8,4.79-9.8,10.01,3.69,10.33,9.8,10.33h0Z"/>
  <path class="cls-2" d="M407.01,237.08h7.94v5.33h.12c1.53-3.33,4.66-6.18,10.22-6.18,9.3,0,12.62,6.31,12.62,13.12v21.5h-8.81v-17.32c0-3.69-.28-9.8-6.12-9.8-5.47,0-7.63,4.02-7.63,8.48v18.64h-8.34v-33.77h0Z"/>
  <path class="cls-2" d="M454.03,256.65c.55,5.27,4.31,8.27,8.97,8.27,4.19,0,7.12-1.95,9.39-4.52l6.01,4.52c-3.89,4.91-9.09,6.79-14.56,6.79-10.08,0-18.14-7.14-18.14-17.96s8.06-17.51,18.14-17.51,16.09,6.52,16.09,18.13v2.29h-25.89ZM471.49,250.4c-.08-4.86-3.53-7.91-8.83-7.91-4.94,0-8,3.13-8.63,7.91h17.46Z"/>
  <path class="cls-2" d="M505.67,246.29c-1.71-2.22-3.85-3.4-6.71-3.4-2.22,0-4.86,1.04-4.86,3.54,0,5.97,18.45,1.11,18.45,14.44,0,8.05-7.94,10.82-14.84,10.82-5.14,0-9.58-1.32-13-5.26l5.56-5.22c2.16,2.36,4.38,4.09,7.93,4.09,2.44,0,5.6-1.17,5.6-3.81,0-7.22-18.03-1.46-18.03-14.52,0-7.42,6.67-10.76,13.39-10.76,4.48,0,9.58,1.38,12.36,5.07l-5.85,5h0Z"/>
  <path class="cls-2" d="M540.41,220.75h19.6c7.42,0,15.06,3.75,15.06,12.83,0,5.56-3.45,9.24-8.51,10.77v.14c6.15.69,10.67,5.55,10.67,11.87,0,11.05-9.38,14.48-18.69,14.48h-18.13v-50.09h0ZM549.59,241.22h7.98c5.83,0,8.75-2.49,8.75-6.18,0-4.36-2.92-6.44-9.51-6.44h-7.22v12.62h0ZM549.59,263.24h8.04c4.52,0,10.77-.76,10.77-7.56,0-5.14-3.33-6.95-10.42-6.95h-8.39v14.52h0Z"/>
  <path class="cls-2" d="M616.22,270.85h-8.15v-5.45h-.14c-1.53,3.44-4.64,6.3-10.2,6.3-8.97,0-12.17-6.44-12.17-13.6v-21.03h8.34v16.85c0,3.69.27,10.14,6.1,10.14,5.48,0,7.66-4.03,7.66-8.81v-18.18h8.55v33.77h0Z"/>
  <path class="cls-2" d="M625.9,237.08h8.35v5.26h.14c1.79-3.82,5.48-6.11,9.86-6.11,1.03,0,2.02.21,2.99.49v8.05c-1.41-.35-2.72-.62-4.05-.62-7.83,0-8.94,6.6-8.94,8.41v18.29h-8.35v-33.77h0Z"/>
  <path class="cls-2" d="M671.19,246.29c-1.59-2.22-3.69-3.4-6.53-3.4-2.22,0-4.86,1.04-4.86,3.54,0,5.97,18,1.11,18,14.44,0,8.05-7.58,10.82-14.38,10.82-5.14,0-9.78-1.32-13.39-5.26l5.87-5.22c2.24,2.36,4.46,4.09,8,4.09,2.42,0,5.55-1.17,5.55-3.81,0-7.22-18.31-1.46-18.31-14.52,0-7.42,7-10.76,13.75-10.76,4.42,0,9.16,1.38,11.86,5.07l-5.56,5h0Z"/>
  <path class="cls-2" d="M705.57,266.15h-.22c-2.36,3.89-6.25,5.55-10.69,5.55-6.51,0-12.62-3.4-12.62-10.13,0-11.18,13.09-11.93,21.44-11.93h2.08v-.92c0-4.09-3.19-6.24-7.66-6.24-3.47,0-6.81,1.39-9.17,3.47l-4.56-4.38c3.84-3.75,9.35-5.34,14.64-5.34,14.23,0,14.23,10.27,14.23,15v19.61h-7.48v-4.69h0ZM705.08,255.46h-1.75c-4.56,0-12.66.35-12.66,5.5,0,3.05,3.3,4.36,6.01,4.36,5.7,0,8.39-2.99,8.39-7.98v-1.88h0ZM702.3,220.75h9.44l-9.78,10.48h-6.53l6.86-10.48h0Z"/>
  <path class="cls-2" d="M718.15,244.15v-7.07h7.06v-9.79h8.63v9.79h9.15v7.07h-9.15v14.64c0,3.62.97,5.7,4.64,5.7,1.47,0,3.47-.27,4.5-1.02v7.12c-1.73.85-4.64,1.12-6.59,1.12-8.99,0-11.19-3.97-11.19-11.93v-15.62h-7.06Z"/>
  <path class="cls-2" d="M753.77,220.27c3.06,0,5.48,2.47,5.48,5.34s-2.42,5-5.48,5-5.29-2.36-5.29-5,2.25-5.34,5.29-5.34h0ZM749.67,237.08h8.33v33.77h-8.33v-33.77h0Z"/>
  <polygon class="cls-2" points="768.22 217.43 776.53 217.43 776.53 270.85 768.22 270.85 768.22 217.43 768.22 217.43"/>
  <path class="cls-2" d="M792.8,256.65c.56,5.27,4.45,8.27,9.31,8.27,4.28,0,7-1.95,9.09-4.52l5.97,4.52c-3.89,4.91-8.81,6.79-14.18,6.79-10.48,0-18.51-7.14-18.51-17.96s8.04-17.51,18.51-17.51c9.38,0,15.71,6.52,15.71,18.13v2.29h-25.89ZM810.34,250.4c-.06-4.86-3.25-7.91-8.59-7.91s-8.33,3.13-8.95,7.91h17.54Z"/>
  <path class="cls-2" d="M844.72,246.29c-1.59-2.22-3.69-3.4-6.67-3.4-2.32,0-5.08,1.04-5.08,3.54,0,5.97,18.35,1.11,18.35,14.44,0,8.05-7.58,10.82-14.58,10.82-5.35,0-9.86-1.32-13.25-5.26l5.55-5.22c2.19,2.36,4.5,4.09,8.22,4.09,2.54,0,5.73-1.17,5.73-3.81,0-7.22-18.45-1.46-18.45-14.52,0-7.42,6.69-10.76,13.74-10.76,4.58,0,9.3,1.38,12,5.07l-5.56,5h0Z"/>
  <path class="cls-2" d="M204.95,98.23l4.25-1.67c6.98-3.19,8.2-9.85,12.58-20.76l24.12-59.57c2.42-5.91,4.98-12.74,6.03-15.46L252.87,0h10.45l1.05.77c.77,2.42,2.88,8.33,5,14.24l21.53,60.93c4.7,13.34,5.32,17.74,12.89,20.77l3.77,1.52v3.34h-40.61v-3.34l8.05-2.88c2.1-.75,3.47-1.52,3.47-3.33,0-1.67-.91-3.49-1.37-5.01l-6.82-21.06c-1.51-4.25-2.58-4.85-6.96-4.85h-19.27c-6.35,0-7.25,0-9.7,7.12l-4.84,14.69c-.92,2.89-2.14,5.47-2.14,8.21,0,2.41,1.68,3.32,4.56,4.23l7.58,2.88v3.34h-34.56v-3.34h0ZM241.34,49.26c-.46.91-.89,1.84-.89,2.88,0,1.98.59,2.13,3.91,2.13h17.92c2.26,0,2.88-.76,2.88-2.13,0-.76-.48-1.51-.62-2.26l-9.25-28.2c-.75-2.43-1.07-3.48-1.96-3.48-.78,0-1.23.91-1.85,2.42l-10.14,28.64h0Z"/>
  <path class="cls-2" d="M318.18,98.23l6.23-2.57c5.46-2.13,5.32-1.52,6.37-18.66l3.79-60.62c.29-4.86,0-7.45-5.16-10.01l-6.37-3.04V0h27.59l1.21,1.07c1.35,3.49,5.01,13.19,8.47,21.53l20.94,50.93c.91,2.12,1.37,3.33,2.28,3.33s1.21-1.05,2.26-3.33l15.32-35.47c5.75-13.33,12.58-31.52,14.4-36.98L416.73,0h27.71v3.33l-4.25,1.82c-6.67,2.89-6.96,3.65-6.96,8.94l1.81,64.28c.32,11.05-1.22,14.7,6.82,18.04l4.24,1.81v3.34h-39.7v-3.34l7.7-2.88c4.72-1.67,4.86-4.85,4.86-8.64l-1.35-59.57c0-1.83-.45-2.59-1.37-2.59-.75,0-1.36.62-2.14,2.27l-21.8,50.64c-3.04,7.11-8.2,20.76-9.11,23.03l-1.35,1.06h-5.91l-1.37-1.06c-1.07-3.34-6.07-15.32-8.79-21.82l-19.7-48.82c-1.53-3.64-1.98-5.31-3.05-5.31-1.21,0-1.65,1.51-1.65,4.11l-2.44,44.09c-.3,5.62-.3,8.81-.3,11.06,0,6.54.63,9.27,7.72,11.85l7.14,2.57v3.34h-35.33v-3.34h0Z"/>
  <path class="cls-2" d="M473.4,98.23l6.67-2.28c5.18-1.67,5.18-3.93,5.18-12.43V16.53c0-7.28-.15-9.26-5.18-10.77l-6.67-2.43V0h40.47v3.33l-6.67,2.43c-5.14,1.67-5.14,3.34-5.14,10.77v66.99c0,8.63-.18,10.76,5.14,12.43l6.67,2.28v3.34h-40.47v-3.34h0Z"/>
  <path class="cls-2" d="M540.7,98.23l6.51-2.28c5.16-1.81,5.16-3.93,5.16-10.61V14.86c0-5.76-.14-7.42-5.16-9.1l-6.51-2.43V0h47.14C606.95,0,618.77,2.74,618.77,20.61c0,9.4-3.51,12.88-8.65,16.98-6.82,5.46-13.63,5.61-13.63,7.73,0,2.88,3.93,1.21,14.07,4.71,9.72,3.48,13.49,10.3,13.49,20.75,0,25.63-21.64,30.78-40.45,30.78h-42.9v-3.34h0ZM569.19,38.2c0,5.16.78,5.61,7.9,5.61,13.79,0,23.79-4.25,23.79-20,0-13.65-8.93-16.99-20.63-16.99-11.06,0-11.06.61-11.06,6.36v25.02h0ZM569.19,80.34c0,9.55.46,14.4,16.21,14.4,14.72,0,20.47-5.9,20.47-21.37s-9.09-22.73-26.68-22.73c-8.33,0-10.01,0-10.01,5.45v24.25h0Z"/>
</svg>