<?xml version="1.0" encoding="UTF-8"?>
<svg id="Layer_1" data-name="Layer 1" xmlns="http://www.w3.org/2000/svg" xmlns:xlink="http://www.w3.org/1999/xlink" viewBox="0 0 1013.11 411.12">
  <defs>
    <style>
      .cls-1 {
        fill: none;
      }

      .cls-2 {
        fill: url(#linear-gradient-3);
      }

      .cls-2, .cls-3, .cls-4, .cls-5, .cls-6 {
        stroke: #067f91;
      }

      .cls-2, .cls-3, .cls-4, .cls-5, .cls-6, .cls-7 {
        stroke-linecap: round;
        stroke-miterlimit: 10;
        stroke-width: 2.47px;
      }

      .cls-3 {
        fill: url(#linear-gradient-6);
      }

      .cls-4 {
        fill: url(#linear-gradient-4);
      }

      .cls-5 {
        fill: url(#linear-gradient-5);
      }

      .cls-6 {
        fill: url(#linear-gradient);
      }

      .cls-7 {
        fill: url(#linear-gradient-2);
        stroke: #036e7c;
      }

      .cls-8 {
        clip-path: url(#clippath);
      }

      .cls-9 {
        fill: #8e959b;
      }
    </style>
    <clipPath id="clippath">
      <rect class="cls-1" width="1013.11" height="411.12"/>
    </clipPath>
    <linearGradient id="linear-gradient" x1="-137.32" y1="752.8" x2="-345.65" y2="752.8" gradientTransform="translate(444 767.65) scale(1 -1)" gradientUnits="userSpaceOnUse">
      <stop offset="0" stop-color="#a8c0d0"/>
      <stop offset=".55" stop-color="#70a0b1"/>
      <stop offset="1" stop-color="#048097"/>
    </linearGradient>
    <linearGradient id="linear-gradient-2" x1="-287.61" y1="371.47" x2="-69.45" y2="371.47" gradientTransform="translate(444 767.65) scale(1 -1)" gradientUnits="userSpaceOnUse">
      <stop offset="0" stop-color="#a4bac7"/>
      <stop offset=".55" stop-color="#6794a4"/>
      <stop offset="1" stop-color="#027084"/>
    </linearGradient>
    <linearGradient id="linear-gradient-3" x1="-417.66" y1="451.84" x2="-290.59" y2="451.84" xlink:href="#linear-gradient"/>
    <linearGradient id="linear-gradient-4" x1="-442.12" y1="628.47" x2="-317.59" y2="628.47" xlink:href="#linear-gradient"/>
    <linearGradient id="linear-gradient-5" x1="-118.89" y1="671.52" x2="8.43" y2="671.52" xlink:href="#linear-gradient"/>
    <linearGradient id="linear-gradient-6" x1="-91.28" y1="495.48" x2="33.04" y2="495.48" xlink:href="#linear-gradient"/>
  </defs>
  <g class="cls-8">
    <g>
      <path class="cls-6" d="M322.83,28.03H104.67L120.75,1.67h184.98l17.1,26.36Z"/>
      <path class="cls-7" d="M374.55,382.99h-218.15l16.08,26.37h184.98l17.09-26.37Z"/>
      <path class="cls-2" d="M153.41,409.37L40.54,222.25l-14.2,27.44,95.71,158.66,31.36,1.02Z"/>
      <path class="cls-4" d="M15.91,233.45L126.41,44.92l-30.82.55L1.88,205.32l14.02,28.12Z"/>
      <path class="cls-5" d="M437.38,189.87L325.11,2.4h30.83l96.49,161.04-15.05,26.43Z"/>
      <path class="cls-3" d="M352.72,366.49l109.4-188.64,14.91,27.84-93.95,160.8h-30.36Z"/>
      <path class="cls-9" d="M91.1,209.84c.46,15.28,11.13,36.53,32.59,36.01,8.07-.2,17.82-2.28,28.88-10.63-1.86,4.89-4.58,13.38-7.93,22.57-8.69,4.64-19.56,5.34-29.81,5.34-27.11,0-49.09-26.63-49.09-59.46s23.58-54.17,50.69-54.17c10.84.18,18.31.94,23.34,2.13.09,9.51-.13,14.08-.09,19.53-10.14-6.4-18.58-7.1-25.21-6.62-18.72,1.36-24.3,23.96-23.37,45.33v-.03Z"/>
      <path class="cls-9" d="M236.79,262.1s-21.07,6.75-53.37-56.86c-7.23-15.42-11.75-10.74-11.75-10.74,0,0,.31,41.83.39,54.27,0,4.41,5.69,10.36,5.69,10.36h-22.27s2.76-5.17,2.76-9.58c0-3.3.69-55.7,0-82.77-.52-8.73-5.65-14.63-5.65-14.63h26.45l41.29,64.91s4.45,1.91,3.89-3.83c-.36-3.63,1.37-53.33-4.72-60.95h22.56s-4.87,3.33-4.84,10.96c.03,7.63-.42,98.86-.42,98.86h-.01Z"/>
      <path class="cls-9" d="M319.5,225.46c-.83-20.5-20.72-26.79-20.72-26.79,0,0,14.13-7.82,15.32-20.81,1.2-12.99-11.42-25.71-21.3-25.71h-48.3s3.81,2.21,3.81,5.97v94.13c0,3.29-3.81,6.06-3.81,6.06h50.49c9.96,0,25.33-12.36,24.5-32.87h.01ZM273.32,178.41v-12.1s7.42-1.31,10.92,1.36c4.98,3.81,4.41,6.91,4.41,12.1,0,4.69-2.22,10.2-6.64,12.92-4.42,2.72-8.69,1.31-8.69,1.31v-15.61h0ZM288.11,243.58c-5.42,3.36-14.79,1.6-14.79,1.6v-37.28s7.92-1.68,12.69.81c5.93,3.09,9.7,10.97,9.7,17.33,0,5.75-2.18,14.19-7.6,17.53Z"/>
      <path class="cls-9" d="M367.99,262.3s-21.3-5.13-25.16-16.66c-3.86-11.52-31.26-93.51-31.26-93.51h28.21l20.22,75.9s3.52,8.96,7.99-4.95c3.12-9.72,12.98-42.67,14.58-60.32.69-7.6-5.63-10.63-5.63-10.63h23.28l-32.22,110.17Z"/>
      <path class="cls-9" d="M533.71,85.68c.98,14.96,13.35,23.61,25.98,23.31,4.75-.11,10.49-2.08,16.98-6.74,0,1.6-.72,5.54-4.32,10.78-5.11,2.59-11.87,2.36-17.9,2.36-15.95,0-31.51-14.85-31.51-33.17s16.51-30.21,32.46-30.21c6.37.09,14.64,2.13,17.6,2.78.05,5.3-.08,7.86-.05,10.89-2.9-3.38-5.98-5.51-18.69-6.79-11.01.75-21.35,9.7-20.56,26.78h0Z"/>
      <path class="cls-9" d="M660.79,171.92c.98,14.97,13.35,23.61,25.98,23.31,4.74-.11,10.47-2.08,16.98-6.74,0,1.6-.72,5.55-4.3,10.79-5.11,2.59-11.87,2.36-17.89,2.36-15.95,0-31.52-14.85-31.52-33.17s16.51-30.21,32.46-30.21c6.37.09,14.64,2.13,17.6,2.78.07,5.31-.08,7.86-.05,10.89-2.9-3.38-5.98-5.51-18.69-6.79-11.01.75-21.35,9.7-20.56,26.78Z"/>
      <path class="cls-9" d="M682.44,264.34c.98,14.97,13.35,23.61,25.98,23.31,4.75-.11,10.47-2.08,16.98-6.74,0,1.6-.73,5.55-4.3,10.79-5.11,2.59-11.87,2.36-17.9,2.36-15.95,0-31.52-14.85-31.52-33.16s16.51-30.21,32.46-30.21c6.37.09,14.64,2.12,17.6,2.78.05,5.31-.08,7.86-.05,10.89-2.9-3.38-5.97-5.5-18.69-6.79-11.01.75-21.35,9.7-20.56,26.79h0Z"/>
      <path class="cls-9" d="M575.69,202.37s-6.74,1.75-35.8-40c-4.86-8.72-10.67-8.79-10.67-8.79.13,14.85.15,25.4.25,41.25,0,2.49,3.8,5.86,3.8,5.86h-12.15s1.85-2.92,1.85-5.42c0-1.87.46-31.51,0-46.82-.35-4.93-3.79-8.29-3.79-8.29h13.2l35.64,45.66s2.99,1.08,2.61-2.17c-.24-2.05.91-39.09-3.16-43.41h11.75s-3.26,1.89-3.25,6.2c0,4.31-.28,55.93-.28,55.93h0Z"/>
      <path class="cls-9" d="M858.85,202.37s-6.74,1.75-35.81-40c-4.85-8.72-10.67-8.79-10.67-8.79.13,14.85.15,25.4.25,41.25,0,2.49,3.81,5.86,3.81,5.86h-12.16s1.85-2.92,1.85-5.42c0-1.87.46-31.51,0-46.82-.35-4.93-3.79-8.29-3.79-8.29h13.2l35.64,45.66s2.99,1.08,2.61-2.17c-.24-2.05.92-39.09-3.18-43.41h11.76s-3.27,1.89-3.25,6.2c0,4.31-.28,55.93-.28,55.93h.03Z"/>
      <path class="cls-9" d="M665.94,295.02s-6.74,1.74-35.81-40.01c-4.86-8.72-10.68-8.79-10.68-8.79.14,14.85.15,25.4.25,41.25,0,2.49,3.81,5.86,3.81,5.86h-12.14s1.84-2.94,1.84-5.42c0-1.87.46-31.51,0-46.82-.35-4.93-3.79-8.27-3.79-8.27h13.19l35.63,45.66s2.99,1.08,2.61-2.17c-.24-2.05.93-39.09-3.16-43.41h11.75s-3.27,1.89-3.25,6.2c.01,4.31-.28,55.93-.28,55.93h.03Z"/>
      <path class="cls-9" d="M962.15,115.99s-6.73,1.75-35.81-40c-4.86-8.72-10.67-8.79-10.67-8.79.13,14.85.15,25.4.25,41.25,0,2.49,3.81,5.86,3.81,5.86h-12.16s1.85-2.92,1.85-5.42c0-1.87.46-31.51,0-46.82-.35-4.93-3.79-8.27-3.79-8.27h13.2l35.64,45.66s2.99,1.08,2.61-2.17c-.24-2.05.92-39.11-3.18-43.42h11.76s-3.27,1.87-3.25,6.2c0,4.31-.28,55.93-.28,55.93h.02Z"/>
      <path class="cls-9" d="M533.44,273.88c-.48-11.71-11.83-15.31-11.83-15.31,0,0,8.07-4.46,8.75-11.89.69-7.43-6.52-14.69-12.17-14.69h-26.38s2.18,1.27,2.18,3.42v53.77c0,1.87-2.18,3.46-2.18,3.46h27.63c5.69,0,14.47-7.06,14-18.77ZM504.33,247v-8.85s7.73-.63,10.13.12c7.43,2.34,7.48,6.55,7.48,9.51,0,2.68-.28,4.81-7.83,7.88-2.75,1.12-9.78.84-9.78.84v-9.49h0ZM521.3,285.06c-8.25,3.25-16.97.09-16.97.09v-22.86s9.4-1.56,15.29,1.55c4.42,2.34,7.53,6.74,7.53,10.38,0,3.29-.57,9-5.85,10.83Z"/>
      <path class="cls-9" d="M653.22,384.39s-9.21-2.94-11.42-9.53c-2.2-6.59-20.85-53.5-20.85-53.5h11.85l14.9,46.06s4.88,5.31,7.43-2.64c1.79-5.57,11.1-27.24,12.01-37.34.39-4.34-3.23-6.08-3.23-6.08h13.31l-24,63.01h0Z"/>
      <path class="cls-9" d="M613.3,52.33c-19.25,0-34.87,14.07-34.87,31.41s15.61,31.43,34.87,31.43,34.88-14.07,34.88-31.43-15.63-31.41-34.88-31.41ZM613.16,108.94c-15.45,0-23.58-11.28-23.58-25.2s8.15-25.2,23.58-25.2,23.87,11.28,23.87,25.2-8.4,25.2-23.87,25.2Z"/>
      <path class="cls-9" d="M864.48,52.33c-19.26,0-34.87,14.07-34.87,31.41s15.61,31.43,34.87,31.43,34.87-14.07,34.87-31.43-15.61-31.41-34.87-31.41ZM864.36,108.94c-15.45,0-23.6-11.28-23.6-25.2s8.15-25.2,23.6-25.2,23.85,11.28,23.85,25.2-8.4,25.2-23.85,25.2Z"/>
      <path class="cls-9" d="M762.78,139.25c-19.25,0-34.88,14.07-34.88,31.43s15.61,31.43,34.88,31.43,34.87-14.07,34.87-31.43-15.61-31.43-34.87-31.43ZM762.65,195.86c-15.45,0-23.6-11.28-23.6-25.2s8.15-25.2,23.6-25.2,23.85,11.28,23.85,25.2-8.42,25.2-23.85,25.2Z"/>
      <path class="cls-9" d="M826.45,320.44c-19.25,0-34.87,14.07-34.87,31.41s15.61,31.43,34.87,31.43,34.88-14.07,34.88-31.43-15.61-31.41-34.88-31.41ZM826.33,377.06c-15.45,0-23.6-11.28-23.6-25.21s8.15-25.2,23.6-25.2,23.85,11.28,23.85,25.2-8.4,25.21-23.85,25.21Z"/>
      <path class="cls-9" d="M515.75,322.55h-26.38s2.18,1.25,2.18,3.41v53.78c0,1.87-2.18,3.46-2.18,3.46h27.63c28.04,0,28.04-34.08,28.04-34.08,0,0-1.35-26.57-29.3-26.57h.01ZM525.91,371.46c-10.63,7.94-24.96,4.26-24.96,4.26v-46.9s15.25-4.73,26.81,4.92c4.92,4.16,7.43,11.95,7.22,17.43-.13,3.29-.06,15.59-9.06,20.31h-.01Z"/>
      <path class="cls-9" d="M592.45,372.77c-1.6,1.35-3.4,1.79-4.16,2.18-10.72,3.72-23.46.77-23.46.77v-23.17c3.95-.39,9.49-.32,14.9,1.81-.01-.12,0-8.01,0-8.01h-14.9v-17.55s10.47-3.09,20.41.85c-.01-.12,0-8.01,0-8.01h-32s2.18,2.16,2.18,4.31v53.78c0,1.87-2.18,3.46-2.18,3.46h35.62c1.88-.65,3.99-7.33,3.59-10.44Z"/>
      <path class="cls-9" d="M957.15,372.77c-1.6,1.35-3.41,1.79-4.16,2.18-10.73,3.72-23.47.77-23.47.77v-23.17c3.95-.39,9.49-.32,14.9,1.81-.01-.12,0-8.01,0-8.01h-14.9v-17.55s10.48-3.09,20.41.85v-8.01h-32s2.18,2.16,2.18,4.31v53.78c0,1.87-2.18,3.46-2.18,3.46h35.62c1.89-.65,3.99-7.33,3.6-10.44h0Z"/>
      <path class="cls-9" d="M742.05,383.37s-3.19-1.97-7.92-11.46c-7.14-13.52-19.54-50.25-19.54-50.25h-11.77s1.02,3.52-.34,7.52c-4.88,14.51-17.58,46.01-19.29,48.45-3.92,5.47-6.28,5.74-6.28,5.74l16.39-.51s-3.62-1.72-3.23-6.08c.05-.4,3.08-8.34,6.58-17.48h24.16c2.68,6.71,5.07,12.84,5.76,14.92,1.77,5.32-.22,9.16-.22,9.16h15.69ZM703.39,352.51c-3.6,0-3.23-2.32-3.23-2.32,0,0,6.17-16.33,6.9-18.61,1.71-2.53,4.72,5.3,4.72,5.3,0,0,2.46,6.05,5.39,13.31,0,0,.38,2.32-3.23,2.32h-10.56Z"/>
      <path class="cls-9" d="M791.38,293.16s-3.19-1.97-7.92-11.45c-7.13-13.52-19.54-50.24-19.54-50.24h-11.78s1.02,3.52-.34,7.52c-4.88,14.51-17.57,46.01-19.29,48.45-3.91,5.47-6.28,5.74-6.28,5.74l16.38-.51s-3.62-1.74-3.23-6.08c.05-.42,3.08-8.34,6.57-17.49h24.15c2.67,6.71,5.07,12.84,5.76,14.92,1.77,5.32-.22,9.16-.22,9.16h15.73ZM752.72,262.3c-3.6,0-3.23-2.32-3.23-2.32,0,0,6.17-16.33,6.9-18.62,1.71-2.53,4.72,5.3,4.72,5.3,0,0,2.46,6.05,5.38,13.31,0,0,.38,2.32-3.23,2.32h-10.55,0Z"/>
      <path class="cls-9" d="M928.35,293.16s-3.19-1.97-7.92-11.45c-7.14-13.52-19.54-50.24-19.54-50.24h-11.76s1.01,3.52-.34,7.52c-4.88,14.51-17.58,46.01-19.3,48.45-3.93,5.47-6.28,5.74-6.28,5.74l16.38-.51s-3.62-1.74-3.23-6.08c.05-.42,3.08-8.34,6.59-17.49h24.15c2.67,6.71,5.07,12.84,5.77,14.92,1.78,5.32-.22,9.16-.22,9.16h15.7ZM889.69,262.3c-3.59,0-3.23-2.32-3.23-2.32,0,0,6.17-16.33,6.9-18.62,1.71-2.53,4.72,5.3,4.72,5.3,0,0,2.46,6.05,5.38,13.31,0,0,.38,2.32-3.21,2.32h-10.56Z"/>
      <path class="cls-9" d="M928.35,201.52s-3.19-1.97-7.92-11.46c-7.14-13.52-19.54-50.25-19.54-50.25h-11.76s1.01,3.52-.34,7.52c-4.88,14.51-17.58,46.01-19.3,48.45-3.93,5.47-6.28,5.74-6.28,5.74l16.38-.51s-3.62-1.74-3.23-6.08c.05-.42,3.08-8.34,6.59-17.49h24.15c2.67,6.71,5.07,12.84,5.77,14.92,1.78,5.32-.22,9.16-.22,9.16h15.7ZM889.69,170.66c-3.59,0-3.23-2.32-3.23-2.32,0,0,6.17-16.35,6.9-18.62,1.71-2.53,4.72,5.3,4.72,5.3,0,0,2.46,6.05,5.38,13.31,0,0,.38,2.32-3.21,2.32h-10.56Z"/>
      <path class="cls-9" d="M647.87,201.52s-3.19-1.97-7.93-11.46c-7.13-13.52-19.53-50.25-19.53-50.25h-11.78s1.02,3.52-.32,7.52c-4.88,14.51-17.56,46.01-19.3,48.45-3.93,5.47-6.28,5.74-6.28,5.74l16.39-.51s-3.62-1.74-3.23-6.08c.05-.42,3.08-8.34,6.59-17.49h24.15c2.67,6.71,5.07,12.84,5.77,14.92,1.78,5.32-.22,9.16-.22,9.16h15.69ZM609.21,170.66c-3.59,0-3.23-2.32-3.23-2.32,0,0,6.17-16.35,6.9-18.62,1.71-2.53,4.72,5.3,4.72,5.3,0,0,2.46,6.05,5.39,13.31,0,0,.38,2.32-3.23,2.32h-10.55Z"/>
      <path class="cls-9" d="M607.34,293.03s-3.19-1.97-7.92-11.45c-7.13-13.52-19.54-50.25-19.54-50.25h-11.78s1.02,3.52-.32,7.52c-4.88,14.51-17.58,46.01-19.29,48.45-3.92,5.47-6.28,5.74-6.28,5.74l16.38-.51s-3.62-1.74-3.23-6.08c.05-.4,3.08-8.33,6.57-17.49h24.16c2.68,6.71,5.07,12.84,5.77,14.92,1.77,5.32-.22,9.16-.22,9.16h15.69ZM568.68,262.18c-3.6,0-3.23-2.32-3.23-2.32,0,0,6.17-16.33,6.91-18.62,1.71-2.53,4.72,5.3,4.72,5.3,0,0,2.46,6.05,5.39,13.33,0,0,.38,2.32-3.23,2.32h-10.57Z"/>
      <path class="cls-9" d="M759.45,374.49c.23-14.06.67-41.1.67-43.41,0-3.13.97-9.43.97-9.43h-11.77s1.04,8.52,1.25,18.93c.32,15.69-.15,35.67-.15,37.22,0,2.59-2.24,5.05-2.24,5.05h35.85s2.92-6.66,4.49-10.42c-11.67,6.31-22.94,4.15-29.1,2.04h.01Z"/>
      <path class="cls-9" d="M948.61,193.52c.23-14.06.67-41.1.67-43.41,0-3.13.98-9.43.98-9.43h-11.77s1.03,8.52,1.25,18.93c.32,15.69-.15,35.67-.15,37.22,0,2.59-2.23,5.05-2.23,5.05h35.85s2.92-6.66,4.49-10.42c-11.67,6.31-22.95,4.14-29.1,2.04h0Z"/>
      <path class="cls-9" d="M856.35,266.4c.04-11.19.24-28.21.24-29.26,0-2.59,2.23-5.05,2.23-5.05h-14.51s2.23,2.48,2.23,5.05c0,1.05.22,18.06.25,29.26-.04,10.92-.25,20.47-.25,21.52,0,2.59-2.23,5.05-2.23,5.05h14.51s-2.23-2.48-2.23-5.05c0-1.05-.22-10.59-.24-21.52Z"/>
      <path class="cls-9" d="M821.38,87.3c.04-11.19.24-28.19.24-29.24,0-2.59,2.23-5.05,2.23-5.05h-14.51s2.24,2.48,2.24,5.05c0,1.05.21,18.06.25,29.24-.04,10.93-.25,20.47-.25,21.52,0,2.59-2.24,5.05-2.24,5.05h14.51s-2.23-2.48-2.23-5.05c0-1.05-.22-10.59-.24-21.52Z"/>
      <path class="cls-9" d="M720.62,175.14c.04-11.19.24-28.19.24-29.24,0-2.59,2.23-5.05,2.23-5.05h-14.51s2.23,2.48,2.23,5.05c0,1.05.22,18.06.24,29.24-.04,10.93-.24,20.47-.24,21.52,0,2.59-2.23,5.05-2.23,5.05h14.51s-2.23-2.48-2.23-5.05c0-1.05-.2-10.59-.24-21.52Z"/>
      <path class="cls-9" d="M750.45,87.3c.03-11.19.24-28.19.24-29.24,0-2.59,2.24-5.05,2.24-5.05h-14.51s2.23,2.48,2.23,5.05c0,1.05.22,18.06.25,29.24-.04,10.93-.25,20.47-.25,21.52,0,2.59-2.23,5.05-2.23,5.05h14.51s-2.24-2.48-2.24-5.05c0-1.05-.21-10.59-.24-21.52Z"/>
      <path class="cls-9" d="M988.39,271.26v-2.13c0-3.01.78-3.73.78-3.73l23.93-35.29h-14.65s5.9,2.86,1.62,9.92c-.69,2.57-16.48,20.83-16.48,20.83,0,0-15.8-18.26-16.48-20.83-4.26-7.06,1.62-9.92,1.62-9.92h-14.64l23.93,35.29s.78,1.16.78,3.73v2.13c-.04,10.93-.24,20.47-.24,21.52,0,2.57-2.23,5.05-2.23,5.05h14.51s-2.23-2.48-2.23-5.05c0-1.05-.22-10.59-.26-21.52h.04Z"/>
      <path class="cls-9" d="M988.39,271.26v-2.13c0-3.01.78-3.73.78-3.73l23.93-35.29h-14.65s5.9,2.86,1.62,9.92c-.69,2.57-16.48,20.83-16.48,20.83,0,0-15.8-18.26-16.48-20.83-4.26-7.06,1.62-9.92,1.62-9.92h-14.64l23.93,35.29s.78,1.16.78,3.73v2.13c-.04,10.93-.24,20.47-.24,21.52,0,2.57-2.23,5.05-2.23,5.05h14.51s-2.23-2.48-2.23-5.05c0-1.05-.22-10.59-.26-21.52h.04Z"/>
      <path class="cls-9" d="M789.89,81.83c-6.73-3.83-21.18-3.65-20.85-15.13,0-1.9.09-4.82,3.53-6.46,11.7-5.54,18.57,2.13,23.65,2.09-.95-.43-.78-5.38-.78-8.09-2.78-1.13-7.52-1.93-15.22-1.93-8.7,0-21.41,7.74-21.41,16.45.04,11.32,10.23,14.3,19.55,17.38,5.03,1.67,7.89,3.73,9.48,5.3,2.57,2.96,4.59,6.37,3.97,10-.97,7.24-18.82,12.13-32.89,1.93,0,3.45.6,7.24,2.79,10.13,9.4,2.14,13.23,1.48,18.49,1.66,14.09.43,21.39-8.72,21.39-17.44.97-11.31-11.73-15.89-11.74-15.9h.02Z"/>
      <path class="cls-9" d="M992.04,349.94c-6.74-3.83-21.18-3.65-20.85-15.13,0-1.9.09-4.82,3.53-6.47,11.7-5.53,18.57,2.13,23.65,2.09-.95-.43-.78-5.38-.78-8.09-2.77-1.12-7.53-1.93-15.22-1.93-8.7,0-21.41,7.74-21.41,16.45.04,11.31,10.23,14.3,19.55,17.37,5.03,1.67,7.89,3.73,9.48,5.3,2.55,2.96,4.59,6.37,3.97,9.99-.97,7.24-18.83,12.13-32.88,1.94,0,3.45.61,7.24,2.8,10.15,9.4,2.14,13.23,1.5,18.49,1.64,14.09.43,21.39-8.72,21.39-17.44.96-11.31-11.73-15.89-11.74-15.9v.03Z"/>
      <path class="cls-9" d="M732.53,113.66s-1.91-1.51-2.55-5.62c-.22-1.39-7.33-49.31-7.33-50.93,0-2.29,2.99-4.11,2.99-4.11,0,0-14.47-.82-15.53,1.85-1.06,2.67-6.76,26.87-18.22,38.73-11.46-11.85-17.16-36.06-18.22-38.73-1.06-2.67-15.53-1.85-15.53-1.85,0,0,2.99,1.82,2.99,4.11,0,1.62-7.12,49.54-7.33,50.93-.65,4.11-2.54,5.62-2.54,5.62h13.94s-2.42-2.74-2.42-5.79,4.65-37.13,4.65-37.13c0,0,.52-3.95.65-5.59.46-.89,1.24-.32,2.54,1.04,15.15,38.73,21.28,46.72,21.28,46.72,0,0,6.13-7.99,21.27-46.72,1.3-1.35,2.07-1.91,2.54-1.04.12,1.64.65,5.59.65,5.59,0,0,4.66,34.07,4.66,37.13s-2.42,5.79-2.42,5.79h13.94Z"/>
      <path class="cls-9" d="M892.69,352.43c7.92-3.03,15.22-8.14,15.22-13.93,0-20.79-18.85-16.85-28.8-16.85h-11.55s2.18,2.16,2.18,4.31v53.78c0,1.87-2.18,3.46-2.18,3.46h13.47s-2.38-1.23-2.38-3.38v-24.49h.07v-5.18s-.05-.01-.07-.03v-22.87c1.99-1.32,4.41-1.25,7.03-1.25,6.82,0,12.36,5.24,12.36,11.7.38,8.53-9.05,13.13-15.87,13.14l2.41,4.38c4.25,6.98,23.48,36.79,35.11,26.02.16-.16-13.79-4.64-26.99-28.83h0Z"/>
      <path class="cls-9" d="M822.94,262.26c7.9-3.03,15.22-8.14,15.22-13.92,0-20.81-18.85-16.85-28.82-16.85h-11.55s2.18,2.16,2.18,4.31v53.78c0,1.87-2.18,3.46-2.18,3.46h13.46s-2.38-1.21-2.38-3.38v-24.49h.07v-5.18s-.05-.01-.07-.03v-22.87c1.99-1.31,4.41-1.24,7.03-1.24,6.82,0,12.36,5.24,12.36,11.7.38,8.53-9.05,13.13-15.87,13.14l2.41,4.38c4.26,6.98,23.48,36.79,35.11,26.02.18-.16-13.8-4.64-26.97-28.84h0Z"/>
    </g>
  </g>
</svg>